<svg width="736" height="496" viewBox="0 0 736 496" fill="none" xmlns="http://www.w3.org/2000/svg">
<path d="M326.299 261.774V163.006H425.898V261.774H326.299Z" fill="white"/>
<path d="M547.756 244.918L353.556 50.7185L398.156 5.41611L547.756 155.368V244.918Z" fill="white"/>
<path d="M564.613 139.214L425.898 0.5H515.799L654.162 139.214H564.613Z" fill="white"/>
<path d="M571.636 261.423V162.392H670.316V261.423H571.636Z" fill="white"/>
<path d="M326.299 261.774V163.006H425.898V261.774H326.299Z" stroke="black"/>
<path d="M547.756 244.918L353.556 50.7185L398.156 5.41611L547.756 155.368V244.918Z" stroke="black"/>
<path d="M564.613 139.214L425.898 0.5H515.799L654.162 139.214H564.613Z" stroke="black"/>
<path d="M571.636 261.423V162.392H670.316V261.423H571.636Z" stroke="black"/>
<path d="M319.49 139.66L181.081 1.30078H271.929L409.914 139.66H319.49Z" fill="#DEBB70" stroke="#DEBB70"/>
<path d="M16.5127 262.148L151.957 126.246L196.492 171.241L106.503 262.148H16.5127Z" fill="white" stroke="white"/>
<path d="M303.251 245.421V155.383L152.063 3.82031L0.5 155.009V245.421L152.063 93.483L303.251 245.421Z" fill="white" stroke="#B99191"/>
<path d="M8.753 404.719V313.412H36.132L58.664 377.733H55.258L77.79 313.412H105.169V404.719H86.436V335.42L88.139 335.682L66.131 396.597H47.922L25.783 335.682L27.486 335.42V404.719H8.753ZM171.757 404.719L209.092 313.412H222.978L260.313 404.719H239.877L216.166 341.184L192.193 404.719H171.757ZM197.433 388.082L203.328 371.314H228.873L234.899 388.082H197.433ZM344.501 404.719L307.821 313.412H328.519L354.588 381.663H348.562L374.107 313.412H394.936L358.387 404.719H344.501ZM461.583 404.719V313.412H522.629V330.18H480.316V349.437H520.14V366.205H480.316V387.951H522.629V404.719H461.583ZM594.574 404.719V313.412H613.831L654.965 380.091H650.118V313.412H668.982V404.719H649.594L608.591 337.909H613.307V404.719H594.574Z" fill="#DEBB70"/>
<rect x="570.727" y="161.895" width="100.448" height="100.084" fill="#DEBB70"/>
<path d="M13.3599 481.719V432.719H32.3999C38.5599 432.719 43.4132 433.979 46.9599 436.499C50.5065 438.972 52.2799 442.379 52.2799 446.719C52.2799 451.059 50.6232 454.489 47.3099 457.009C44.0432 459.482 39.5632 460.719 33.8699 460.719H24.5599V481.719H13.3599ZM31.1399 459.319C34.1732 459.319 36.5765 458.549 38.3499 457.009C40.1699 455.469 41.0799 453.439 41.0799 450.919C41.0799 448.352 40.1699 446.299 38.3499 444.759C36.5765 443.219 34.1732 442.449 31.1399 442.449H24.5599V459.319H31.1399ZM98.8911 481.719V432.719H117.931C124.091 432.719 128.944 433.979 132.491 436.499C136.038 438.972 137.811 442.379 137.811 446.719C137.811 450.032 136.831 452.832 134.871 455.119C132.911 457.359 130.134 458.922 126.541 459.809L141.941 481.719H129.481L114.781 460.649C114.688 460.695 114.571 460.719 114.431 460.719C114.338 460.719 114.244 460.719 114.151 460.719H109.881V481.719H98.8911ZM116.671 459.319C119.704 459.319 122.108 458.549 123.881 457.009C125.701 455.469 126.611 453.439 126.611 450.919C126.611 448.352 125.701 446.299 123.881 444.759C122.108 443.219 119.704 442.449 116.671 442.449H109.881V459.319H116.671ZM210.032 482.769C205.179 482.769 200.792 481.672 196.872 479.479C192.952 477.239 189.872 474.182 187.632 470.309C185.439 466.389 184.342 462.025 184.342 457.219C184.342 452.412 185.439 448.072 187.632 444.199C189.872 440.279 192.952 437.222 196.872 435.029C200.792 432.789 205.179 431.669 210.032 431.669C214.885 431.669 219.272 432.789 223.192 435.029C227.112 437.222 230.169 440.279 232.362 444.199C234.602 448.072 235.722 452.412 235.722 457.219C235.722 462.025 234.602 466.389 232.362 470.309C230.169 474.182 227.112 477.239 223.192 479.479C219.272 481.672 214.885 482.769 210.032 482.769ZM210.032 471.779C212.739 471.779 215.165 471.149 217.312 469.889C219.505 468.629 221.209 466.902 222.422 464.709C223.682 462.469 224.312 459.972 224.312 457.219C224.312 454.465 223.682 451.992 222.422 449.799C221.209 447.559 219.505 445.809 217.312 444.549C215.165 443.242 212.739 442.589 210.032 442.589C207.325 442.589 204.899 443.242 202.752 444.549C200.605 445.809 198.902 447.559 197.642 449.799C196.429 451.992 195.822 454.465 195.822 457.219C195.822 459.972 196.429 462.469 197.642 464.709C198.902 466.902 200.605 468.629 202.752 469.889C204.899 471.149 207.325 471.779 210.032 471.779ZM299.004 482.769C295.178 482.769 291.771 481.999 288.784 480.459C285.844 478.872 283.558 476.655 281.924 473.809C280.291 470.915 279.474 467.602 279.474 463.869V458.899H290.464V463.169C290.464 464.849 290.814 466.365 291.514 467.719C292.214 469.072 293.194 470.122 294.454 470.869C295.714 471.569 297.161 471.919 298.794 471.919C301.221 471.919 303.158 471.125 304.604 469.539C306.098 467.905 306.844 465.782 306.844 463.169V432.719H318.044V463.869C318.044 467.602 317.251 470.915 315.664 473.809C314.124 476.655 311.908 478.872 309.014 480.459C306.168 481.999 302.831 482.769 299.004 482.769ZM369.635 481.719V432.719H403.445V442.449H380.625V456.519H396.165V457.919H380.625V471.989H405.475V481.719H369.635ZM473.932 482.769C469.079 482.769 464.715 481.672 460.842 479.479C457.015 477.285 454.005 474.252 451.812 470.379C449.665 466.505 448.592 462.119 448.592 457.219C448.592 452.319 449.665 447.932 451.812 444.059C454.005 440.185 457.015 437.152 460.842 434.959C464.715 432.765 469.079 431.669 473.932 431.669C478.179 431.669 482.052 432.579 485.552 434.399C489.099 436.172 491.945 438.669 494.092 441.889C496.285 445.109 497.545 448.725 497.872 452.739H486.532C486.112 450.685 485.295 448.912 484.082 447.419C482.915 445.879 481.445 444.689 479.672 443.849C477.945 443.009 475.985 442.589 473.792 442.589C471.132 442.589 468.752 443.219 466.652 444.479C464.599 445.739 462.989 447.489 461.822 449.729C460.655 451.922 460.072 454.419 460.072 457.219C460.072 460.019 460.655 462.539 461.822 464.779C462.989 466.972 464.599 468.699 466.652 469.959C468.752 471.172 471.132 471.779 473.792 471.779C475.985 471.779 477.945 471.382 479.672 470.589C481.445 469.749 482.915 468.582 484.082 467.089C485.295 465.549 486.112 463.752 486.532 461.699H497.872C497.545 465.712 496.285 469.329 494.092 472.549C491.945 475.769 489.099 478.289 485.552 480.109C482.052 481.882 478.179 482.769 473.932 482.769ZM557.538 481.719V443.499H539.898V432.719H586.308V443.499H568.738V481.719H557.538ZM652.378 482.769C647.712 482.769 643.628 481.999 640.128 480.459C636.628 478.919 633.875 476.725 631.868 473.879C629.862 470.985 628.765 467.625 628.578 463.799H639.708C639.942 465.852 640.548 467.625 641.528 469.119C642.508 470.565 643.862 471.685 645.588 472.479C647.315 473.272 649.322 473.669 651.608 473.669C654.968 473.669 657.558 473.039 659.378 471.779C661.245 470.472 662.178 468.652 662.178 466.319C662.178 464.592 661.618 463.169 660.498 462.049C659.378 460.882 657.768 459.902 655.668 459.109C653.568 458.315 650.815 457.569 647.408 456.869H647.338C643.652 456.075 640.595 455.165 638.168 454.139C635.788 453.112 633.922 451.805 632.568 450.219C631.262 448.632 630.608 446.719 630.608 444.479C630.608 441.912 631.448 439.672 633.128 437.759C634.855 435.799 637.188 434.305 640.128 433.279C643.068 432.205 646.405 431.669 650.138 431.669C654.712 431.669 658.678 432.415 662.038 433.909C665.445 435.402 668.105 437.525 670.018 440.279C671.932 443.032 673.005 446.322 673.238 450.149H661.618C661.338 447.255 660.218 444.992 658.258 443.359C656.298 441.725 653.708 440.909 650.488 440.909C648.482 440.909 646.732 441.212 645.238 441.819C643.745 442.379 642.602 443.219 641.808 444.339C641.015 445.412 640.618 446.719 640.618 448.259C640.618 449.985 641.202 451.385 642.368 452.459C643.535 453.532 645.332 454.489 647.758 455.329C650.232 456.169 653.778 457.102 658.398 458.129C658.585 458.175 658.748 458.222 658.888 458.269C659.075 458.269 659.262 458.292 659.448 458.339C659.542 458.385 659.635 458.409 659.728 458.409C659.822 458.409 659.915 458.432 660.008 458.479C662.715 459.132 665.002 459.902 666.868 460.789C668.735 461.629 670.205 462.772 671.278 464.219C672.352 465.665 672.888 467.485 672.888 469.679C672.888 472.245 672.025 474.532 670.298 476.539C668.618 478.499 666.215 480.039 663.088 481.159C659.962 482.232 656.392 482.769 652.378 482.769Z" fill="white"/>
</svg>
