<svg width="1476" height="263" viewBox="0 0 1476 263" fill="none" xmlns="http://www.w3.org/2000/svg">
<path d="M326.299 261.879V163.112H425.898V261.879H326.299Z" fill="#DEBB70"/>
<path d="M547.756 245.024L353.556 50.824L398.156 5.52158L547.756 155.473V245.024Z" fill="#DEBB70"/>
<path d="M564.613 139.32L425.898 0.605469H515.799L654.162 139.32H564.613Z" fill="#DEBB70"/>
<path d="M571.636 261.529V162.497H670.316V261.529H571.636Z" fill="#DEBB70"/>
<path d="M326.299 261.879V163.112H425.898V261.879H326.299Z" stroke="#DEBB70"/>
<path d="M547.756 245.024L353.556 50.824L398.156 5.52158L547.756 155.473V245.024Z" stroke="#DEBB70"/>
<path d="M564.613 139.32L425.898 0.605469H515.799L654.162 139.32H564.613Z" stroke="#DEBB70"/>
<path d="M571.636 261.529V162.497H670.316V261.529H571.636Z" stroke="#DEBB70"/>
<path d="M319.49 139.766L181.081 1.40625H271.929L409.915 139.766H319.49Z" fill="#DEBB70" stroke="#DEBB70"/>
<path d="M16.5127 262.254L151.957 126.352L196.492 171.346L106.503 262.254H16.5127Z" fill="#DEBB70" stroke="#DEBB70"/>
<path d="M303.251 245.527V155.488L152.063 3.92578L0.5 155.114V245.527L152.063 93.5884L303.251 245.527Z" fill="#DEBB70" stroke="#DEBB70"/>
<path d="M723.385 120V33.2H740.001L776.953 94.456H768.149L804.481 33.2H820.973L821.221 120H802.373L802.249 62.092H805.721L776.705 110.824H767.653L738.017 62.092H742.233V120H723.385ZM886.206 120L924.894 33.2H944.734L983.546 120H962.466L930.722 43.368H938.658L906.79 120H886.206ZM905.55 101.4L910.882 86.148H955.522L960.978 101.4H905.55ZM1069.67 120L1032.22 33.2H1053.92L1086.66 110.08H1073.89L1107.12 33.2H1127.08L1089.51 120H1069.67ZM1208.6 68.168H1250.39V83.792H1208.6V68.168ZM1210.09 103.88H1257.34V120H1190.13V33.2H1255.72V49.32H1210.09V103.88ZM1329.12 120V33.2H1345.74L1396.95 95.696H1388.89V33.2H1408.73V120H1392.24L1340.9 57.504H1348.96V120H1329.12Z" fill="#DEBB70"/>
<rect x="570.727" y="162" width="100.448" height="100.084" fill="#DEBB70"/>
<path d="M748.917 201.234C750.841 201.234 752.518 201 753.948 200.532C755.378 200.038 756.561 199.349 757.497 198.465C758.459 197.555 759.174 196.463 759.642 195.189C760.11 193.889 760.344 192.446 760.344 190.86C760.344 189.352 760.11 187.987 759.642 186.765C759.174 185.543 758.472 184.503 757.536 183.645C756.6 182.787 755.417 182.137 753.987 181.695C752.557 181.227 750.867 180.993 748.917 180.993H741.078V201.234H748.917ZM748.917 172.881C752.687 172.881 755.95 173.323 758.706 174.207C761.462 175.091 763.737 176.326 765.531 177.912C767.325 179.498 768.651 181.396 769.509 183.606C770.393 185.816 770.835 188.234 770.835 190.86C770.835 193.59 770.38 196.099 769.47 198.387C768.56 200.649 767.195 202.599 765.375 204.237C763.555 205.875 761.267 207.149 758.511 208.059C755.781 208.969 752.583 209.424 748.917 209.424H741.078V229.275H730.587V172.881H748.917ZM838.823 199.713C840.799 199.713 842.515 199.466 843.971 198.972C845.453 198.478 846.662 197.802 847.598 196.944C848.56 196.06 849.275 195.02 849.743 193.824C850.211 192.628 850.445 191.315 850.445 189.885C850.445 187.025 849.496 184.828 847.598 183.294C845.726 181.76 842.853 180.993 838.979 180.993H832.271V199.713H838.823ZM865.811 229.275H856.334C854.54 229.275 853.24 228.573 852.434 227.169L840.578 209.112C840.136 208.436 839.642 207.955 839.096 207.669C838.576 207.383 837.796 207.24 836.756 207.24H832.271V229.275H821.78V172.881H838.979C842.801 172.881 846.077 173.284 848.807 174.09C851.563 174.87 853.812 175.975 855.554 177.405C857.322 178.835 858.622 180.551 859.454 182.553C860.286 184.529 860.702 186.713 860.702 189.105C860.702 191.003 860.416 192.797 859.844 194.487C859.298 196.177 858.492 197.711 857.426 199.089C856.386 200.467 855.086 201.676 853.526 202.716C851.992 203.756 850.237 204.575 848.261 205.173C848.937 205.563 849.561 206.031 850.133 206.577C850.705 207.097 851.225 207.721 851.693 208.449L865.811 229.275ZM967.82 201.078C967.82 205.212 967.131 209.047 965.753 212.583C964.401 216.093 962.477 219.135 959.981 221.709C957.485 224.283 954.482 226.298 950.972 227.754C947.462 229.184 943.562 229.899 939.272 229.899C935.008 229.899 931.121 229.184 927.611 227.754C924.101 226.298 921.085 224.283 918.563 221.709C916.067 219.135 914.13 216.093 912.752 212.583C911.374 209.047 910.685 205.212 910.685 201.078C910.685 196.944 911.374 193.122 912.752 189.612C914.13 186.076 916.067 183.021 918.563 180.447C921.085 177.873 924.101 175.871 927.611 174.441C931.121 172.985 935.008 172.257 939.272 172.257C942.132 172.257 944.823 172.595 947.345 173.271C949.867 173.921 952.181 174.857 954.287 176.079C956.393 177.275 958.278 178.744 959.942 180.486C961.632 182.202 963.062 184.126 964.232 186.258C965.402 188.39 966.286 190.704 966.884 193.2C967.508 195.696 967.82 198.322 967.82 201.078ZM957.095 201.078C957.095 197.984 956.679 195.215 955.847 192.771C955.015 190.301 953.832 188.208 952.298 186.492C950.764 184.776 948.892 183.463 946.682 182.553C944.498 181.643 942.028 181.188 939.272 181.188C936.516 181.188 934.033 181.643 931.823 182.553C929.639 183.463 927.767 184.776 926.207 186.492C924.673 188.208 923.49 190.301 922.658 192.771C921.826 195.215 921.41 197.984 921.41 201.078C921.41 204.172 921.826 206.954 922.658 209.424C923.49 211.868 924.673 213.948 926.207 215.664C927.767 217.354 929.639 218.654 931.823 219.564C934.033 220.474 936.516 220.929 939.272 220.929C942.028 220.929 944.498 220.474 946.682 219.564C948.892 218.654 950.764 217.354 952.298 215.664C953.832 213.948 955.015 211.868 955.847 209.424C956.679 206.954 957.095 204.172 957.095 201.078ZM1039.06 209.229C1039.06 212.401 1038.67 215.261 1037.89 217.809C1037.11 220.357 1035.94 222.528 1034.38 224.322C1032.85 226.116 1030.92 227.494 1028.61 228.456C1026.29 229.418 1023.6 229.899 1020.54 229.899C1019.13 229.899 1017.75 229.808 1016.4 229.626C1015.05 229.47 1013.63 229.21 1012.15 228.846C1012.23 227.806 1012.32 226.766 1012.42 225.726C1012.53 224.686 1012.62 223.646 1012.7 222.606C1012.77 222.034 1013 221.579 1013.36 221.241C1013.75 220.877 1014.3 220.695 1015 220.695C1015.44 220.695 1016.01 220.786 1016.71 220.968C1017.44 221.15 1018.35 221.241 1019.44 221.241C1020.93 221.241 1022.24 221.033 1023.38 220.617C1024.53 220.175 1025.48 219.486 1026.23 218.55C1027.01 217.614 1027.59 216.405 1027.98 214.923C1028.37 213.415 1028.57 211.595 1028.57 209.463V172.881H1039.06V209.229ZM1104.52 181.227V196.866H1124.25V204.939H1104.52V220.89H1129.56V229.275H1093.99V172.881H1129.56V181.227H1104.52ZM1219.26 215.976C1219.83 215.976 1220.34 216.197 1220.78 216.639L1224.92 221.124C1222.63 223.958 1219.81 226.129 1216.45 227.637C1213.12 229.145 1209.12 229.899 1204.44 229.899C1200.25 229.899 1196.48 229.184 1193.13 227.754C1189.8 226.324 1186.96 224.335 1184.59 221.787C1182.22 219.239 1180.4 216.197 1179.13 212.661C1177.88 209.125 1177.26 205.264 1177.26 201.078C1177.26 196.84 1177.93 192.966 1179.29 189.456C1180.64 185.92 1182.54 182.878 1184.98 180.33C1187.45 177.782 1190.39 175.806 1193.79 174.402C1197.2 172.972 1200.97 172.257 1205.1 172.257C1209.21 172.257 1212.85 172.933 1216.02 174.285C1219.22 175.637 1221.94 177.405 1224.17 179.589L1220.66 184.464C1220.46 184.776 1220.18 185.049 1219.85 185.283C1219.53 185.517 1219.09 185.634 1218.52 185.634C1218.13 185.634 1217.73 185.53 1217.31 185.322C1216.89 185.088 1216.44 184.815 1215.95 184.503C1215.45 184.165 1214.88 183.801 1214.23 183.411C1213.58 183.021 1212.83 182.67 1211.97 182.358C1211.11 182.02 1210.11 181.747 1208.96 181.539C1207.85 181.305 1206.55 181.188 1205.06 181.188C1202.54 181.188 1200.23 181.643 1198.12 182.553C1196.04 183.437 1194.25 184.737 1192.74 186.453C1191.23 188.143 1190.06 190.223 1189.23 192.693C1188.4 195.137 1187.98 197.932 1187.98 201.078C1187.98 204.25 1188.42 207.071 1189.31 209.541C1190.22 212.011 1191.44 214.091 1192.97 215.781C1194.51 217.471 1196.32 218.771 1198.4 219.681C1200.48 220.565 1202.71 221.007 1205.1 221.007C1206.53 221.007 1207.82 220.929 1208.96 220.773C1210.13 220.617 1211.2 220.37 1212.16 220.032C1213.15 219.694 1214.07 219.265 1214.93 218.745C1215.82 218.199 1216.69 217.536 1217.54 216.756C1217.8 216.522 1218.08 216.34 1218.36 216.21C1218.65 216.054 1218.95 215.976 1219.26 215.976ZM1314.39 181.5H1297.39V229.275H1286.9V181.5H1269.89V172.881H1314.39V181.5ZM1394.55 183.138C1394.24 183.684 1393.9 184.087 1393.54 184.347C1393.2 184.581 1392.77 184.698 1392.25 184.698C1391.7 184.698 1391.1 184.503 1390.45 184.113C1389.83 183.697 1389.08 183.242 1388.19 182.748C1387.31 182.254 1386.27 181.812 1385.07 181.422C1383.9 181.006 1382.51 180.798 1380.9 180.798C1379.44 180.798 1378.17 180.98 1377.08 181.344C1375.99 181.682 1375.06 182.163 1374.31 182.787C1373.58 183.411 1373.03 184.165 1372.67 185.049C1372.31 185.907 1372.12 186.856 1372.12 187.896C1372.12 189.222 1372.49 190.327 1373.22 191.211C1373.97 192.095 1374.96 192.849 1376.18 193.473C1377.4 194.097 1378.79 194.656 1380.35 195.15C1381.91 195.644 1383.51 196.177 1385.15 196.749C1386.79 197.295 1388.39 197.945 1389.95 198.699C1391.51 199.427 1392.9 200.363 1394.12 201.507C1395.34 202.625 1396.32 204.003 1397.05 205.641C1397.8 207.279 1398.18 209.268 1398.18 211.608C1398.18 214.156 1397.73 216.548 1396.85 218.784C1395.99 220.994 1394.72 222.931 1393.03 224.595C1391.36 226.233 1389.32 227.533 1386.91 228.495C1384.49 229.431 1381.72 229.899 1378.6 229.899C1376.8 229.899 1375.04 229.717 1373.29 229.353C1371.55 229.015 1369.88 228.521 1368.26 227.871C1366.68 227.221 1365.18 226.441 1363.78 225.531C1362.37 224.621 1361.13 223.607 1360.03 222.489L1363.12 217.458C1363.38 217.094 1363.71 216.795 1364.13 216.561C1364.55 216.301 1364.99 216.171 1365.46 216.171C1366.11 216.171 1366.81 216.444 1367.56 216.99C1368.32 217.51 1369.21 218.095 1370.25 218.745C1371.29 219.395 1372.5 219.993 1373.88 220.539C1375.28 221.059 1376.96 221.319 1378.91 221.319C1381.9 221.319 1384.21 220.617 1385.85 219.213C1387.49 217.783 1388.31 215.742 1388.31 213.09C1388.31 211.608 1387.93 210.399 1387.18 209.463C1386.45 208.527 1385.48 207.747 1384.25 207.123C1383.03 206.473 1381.64 205.927 1380.08 205.485C1378.52 205.043 1376.93 204.562 1375.32 204.042C1373.71 203.522 1372.12 202.898 1370.56 202.17C1369 201.442 1367.61 200.493 1366.39 199.323C1365.17 198.153 1364.18 196.697 1363.43 194.955C1362.7 193.187 1362.34 191.016 1362.34 188.442C1362.34 186.388 1362.74 184.386 1363.54 182.436C1364.38 180.486 1365.57 178.757 1367.13 177.249C1368.69 175.741 1370.62 174.532 1372.9 173.622C1375.19 172.712 1377.82 172.257 1380.78 172.257C1384.11 172.257 1387.18 172.777 1389.99 173.817C1392.79 174.857 1395.19 176.313 1397.16 178.185L1394.55 183.138Z" fill="white"/>
</svg>
